<?xml version="1.0" standalone="no"?>
<!DOCTYPE svg PUBLIC "-//W3C//DTD SVG 20010904//EN"
 "http://www.w3.org/TR/2001/REC-SVG-20010904/DTD/svg10.dtd">
<svg version="1.0" xmlns="http://www.w3.org/2000/svg"
 width="225.000000pt" height="225.000000pt" viewBox="0 0 225.000000 225.000000"
 preserveAspectRatio="xMidYMid meet">

<g transform="translate(0.000000,225.000000) scale(0.100000,-0.100000)"
fill="#000000" stroke="none">
<path d="M960 2002 c-91 -54 -171 -101 -178 -105 -14 -9 -13 -11 50 -119 l38
-67 123 71 c67 39 127 71 132 71 9 0 112 -58 222 -124 l31 -19 51 87 c40 68
48 90 38 99 -6 6 -77 48 -157 94 -80 46 -154 89 -165 96 -18 11 -39 1 -185
-84z"/>
<path d="M453 1709 l-173 -101 0 -204 0 -204 105 0 104 0 3 147 3 147 122 71
c68 38 123 73 123 76 0 15 -96 169 -105 169 -5 0 -88 -46 -182 -101z"/>
<path d="M1557 1729 c-26 -44 -47 -83 -47 -87 0 -4 55 -39 123 -77 l122 -71 3
-147 3 -147 104 0 105 0 0 204 0 204 -174 101 c-95 56 -177 101 -183 101 -5 0
-30 -36 -56 -81z"/>
<path d="M280 846 l0 -204 180 -105 180 -105 50 84 c28 47 50 88 50 92 0 4
-55 39 -123 77 l-122 70 -3 148 -3 147 -104 0 -105 0 0 -204z"/>
<path d="M1758 903 l-3 -148 -122 -70 c-68 -38 -123 -73 -123 -76 0 -16 93
-169 104 -169 6 0 88 45 181 99 l170 99 3 206 2 206 -105 0 -104 0 -3 -147z"/>
<path d="M819 449 c-28 -50 -50 -91 -48 -93 7 -5 347 -199 352 -200 2 0 83 44
180 99 129 73 175 104 171 115 -3 8 -25 49 -50 92 l-45 76 -122 -71 c-67 -38
-126 -70 -132 -70 -5 0 -65 32 -132 71 l-122 70 -52 -89z"/>
</g>
</svg>
